<mxfile host="65bd71144e">
    <diagram id="_I4hxrR2_AyWP_YN9HfP" name="Page-1">
        <mxGraphModel dx="1138" dy="918" grid="1" gridSize="10" guides="1" tooltips="1" connect="1" arrows="1" fold="1" page="1" pageScale="1" pageWidth="827" pageHeight="1169" math="0" shadow="0">
            <root>
                <mxCell id="0"/>
                <mxCell id="1" parent="0"/>
                <mxCell id="40" value="" style="rounded=0;whiteSpace=wrap;html=1;fontSize=24;fillColor=#3162C4;" vertex="1" parent="1">
                    <mxGeometry x="1080" y="660" width="710" height="180" as="geometry"/>
                </mxCell>
                <mxCell id="35" value="" style="rounded=0;whiteSpace=wrap;html=1;fontSize=24;fillColor=#0C4A0A;" vertex="1" parent="1">
                    <mxGeometry x="930" y="150" width="810" height="100" as="geometry"/>
                </mxCell>
                <mxCell id="3" value="PLAN - Weather API Applicaiton" style="text;html=1;strokeColor=none;fillColor=none;align=center;verticalAlign=middle;whiteSpace=wrap;rounded=0;" parent="1" vertex="1">
                    <mxGeometry x="204" y="30" width="210" height="40" as="geometry"/>
                </mxCell>
                <mxCell id="9" style="edgeStyle=none;html=1;exitX=0.5;exitY=1;exitDx=0;exitDy=0;entryX=0.5;entryY=0;entryDx=0;entryDy=0;" parent="1" source="4" target="5" edge="1">
                    <mxGeometry relative="1" as="geometry"/>
                </mxCell>
                <mxCell id="4" value="Weather Forecasting for Outdoor activities" style="rounded=0;whiteSpace=wrap;html=1;" parent="1" vertex="1">
                    <mxGeometry x="241" y="100" width="136" height="40" as="geometry"/>
                </mxCell>
                <mxCell id="5" value="Will provide weather information for specific locations in the UK that are good for outdoor activities.&lt;br&gt;&lt;br&gt;Lake District - Ambleside&lt;br&gt;North Wales - Llandberis&amp;nbsp;53.119, -4.131&lt;br&gt;Peak District - Bamford&amp;nbsp;53.3485, -1.6894&lt;br&gt;Yorkshire Dales - Settle&lt;br&gt;Highlands - Fort William" style="rounded=0;whiteSpace=wrap;html=1;" parent="1" vertex="1">
                    <mxGeometry x="131" y="200" width="356" height="150" as="geometry"/>
                </mxCell>
                <mxCell id="10" value="UI user will see regarding the weather:&lt;br&gt;&lt;br&gt;User will see tiles of each location and we will associate icons with the weather.&lt;br&gt;&lt;br&gt;Temperature&lt;br&gt;Rain&lt;br&gt;Wind" style="rounded=0;whiteSpace=wrap;html=1;" parent="1" vertex="1">
                    <mxGeometry x="192" y="390" width="240" height="140" as="geometry"/>
                </mxCell>
                <mxCell id="11" value="" style="endArrow=classic;html=1;exitX=0.5;exitY=1;exitDx=0;exitDy=0;entryX=0.5;entryY=0;entryDx=0;entryDy=0;" parent="1" source="5" target="10" edge="1">
                    <mxGeometry width="50" height="50" relative="1" as="geometry">
                        <mxPoint x="460" y="350" as="sourcePoint"/>
                        <mxPoint x="440" y="390" as="targetPoint"/>
                    </mxGeometry>
                </mxCell>
                <mxCell id="12" value="Website will then recommend which activities are good for the area." style="rounded=0;whiteSpace=wrap;html=1;" parent="1" vertex="1">
                    <mxGeometry x="213" y="600" width="201" height="100" as="geometry"/>
                </mxCell>
                <mxCell id="13" value="" style="endArrow=classic;html=1;exitX=0.5;exitY=1;exitDx=0;exitDy=0;entryX=0.5;entryY=0;entryDx=0;entryDy=0;" parent="1" source="10" target="12" edge="1">
                    <mxGeometry width="50" height="50" relative="1" as="geometry">
                        <mxPoint x="320" y="600" as="sourcePoint"/>
                        <mxPoint x="400" y="520" as="targetPoint"/>
                    </mxGeometry>
                </mxCell>
                <mxCell id="34" value="" style="edgeStyle=none;html=1;fontSize=24;" edge="1" parent="1" source="14" target="15">
                    <mxGeometry relative="1" as="geometry"/>
                </mxCell>
                <mxCell id="14" value="&lt;font style=&quot;font-size: 24px;&quot;&gt;Title page&lt;/font&gt;" style="rounded=1;whiteSpace=wrap;html=1;" vertex="1" parent="1">
                    <mxGeometry x="950" y="60" width="120" height="60" as="geometry"/>
                </mxCell>
                <mxCell id="15" value="Location &amp;lt;buttons&amp;gt;" style="rounded=1;whiteSpace=wrap;html=1;fontSize=24;fillColor=#43AB2E;" vertex="1" parent="1">
                    <mxGeometry x="950" y="170" width="120" height="60" as="geometry"/>
                </mxCell>
                <mxCell id="27" value="" style="edgeStyle=none;html=1;fontSize=24;" edge="1" parent="1" source="16" target="22">
                    <mxGeometry relative="1" as="geometry"/>
                </mxCell>
                <mxCell id="28" style="edgeStyle=none;html=1;entryX=0.5;entryY=0;entryDx=0;entryDy=0;fontSize=24;" edge="1" parent="1" target="23">
                    <mxGeometry relative="1" as="geometry">
                        <mxPoint x="1435" y="620" as="sourcePoint"/>
                    </mxGeometry>
                </mxCell>
                <mxCell id="29" style="edgeStyle=none;html=1;exitX=1;exitY=1;exitDx=0;exitDy=0;entryX=0.5;entryY=0;entryDx=0;entryDy=0;fontSize=24;" edge="1" parent="1" source="16" target="24">
                    <mxGeometry relative="1" as="geometry"/>
                </mxCell>
                <mxCell id="16" value="Location INFO section" style="rounded=1;whiteSpace=wrap;html=1;fontSize=24;fillColor=#A19A5F;" vertex="1" parent="1">
                    <mxGeometry x="1352.5" y="530" width="165" height="80" as="geometry"/>
                </mxCell>
                <mxCell id="26" value="" style="edgeStyle=none;html=1;fontSize=24;" edge="1" parent="1" source="17" target="16">
                    <mxGeometry relative="1" as="geometry"/>
                </mxCell>
                <mxCell id="17" value="Opens information about location" style="shape=parallelogram;perimeter=parallelogramPerimeter;whiteSpace=wrap;html=1;fixedSize=1;fontSize=24;" vertex="1" parent="1">
                    <mxGeometry x="1340" y="350" width="190" height="110" as="geometry"/>
                </mxCell>
                <mxCell id="22" value="WIND info" style="ellipse;whiteSpace=wrap;html=1;fontSize=24;" vertex="1" parent="1">
                    <mxGeometry x="1110" y="690" width="180" height="120" as="geometry"/>
                </mxCell>
                <mxCell id="23" value="RAIN info" style="ellipse;whiteSpace=wrap;html=1;fontSize=24;" vertex="1" parent="1">
                    <mxGeometry x="1345" y="695" width="180" height="110" as="geometry"/>
                </mxCell>
                <mxCell id="24" value="TEMPERATURE info" style="ellipse;whiteSpace=wrap;html=1;fontSize=24;" vertex="1" parent="1">
                    <mxGeometry x="1570" y="690" width="180" height="110" as="geometry"/>
                </mxCell>
                <mxCell id="36" style="edgeStyle=none;html=1;exitX=0.5;exitY=1;exitDx=0;exitDy=0;entryX=0;entryY=0;entryDx=0;entryDy=0;fontSize=24;" edge="1" parent="1" source="30" target="17">
                    <mxGeometry relative="1" as="geometry"/>
                </mxCell>
                <mxCell id="30" value="Highlands" style="rounded=0;whiteSpace=wrap;html=1;fontSize=24;fillColor=#5E0202;" vertex="1" parent="1">
                    <mxGeometry x="1160" y="170" width="120" height="60" as="geometry"/>
                </mxCell>
                <mxCell id="39" style="edgeStyle=none;html=1;exitX=0.5;exitY=1;exitDx=0;exitDy=0;entryX=1;entryY=0;entryDx=0;entryDy=0;fontSize=24;" edge="1" parent="1" source="31" target="17">
                    <mxGeometry relative="1" as="geometry"/>
                </mxCell>
                <mxCell id="31" value="North Wales" style="rounded=0;whiteSpace=wrap;html=1;fontSize=24;fillColor=#5E0202;" vertex="1" parent="1">
                    <mxGeometry x="1580" y="170" width="120" height="60" as="geometry"/>
                </mxCell>
                <mxCell id="38" style="edgeStyle=none;html=1;exitX=0.5;exitY=1;exitDx=0;exitDy=0;entryX=0.75;entryY=0;entryDx=0;entryDy=0;fontSize=24;" edge="1" parent="1" source="32" target="17">
                    <mxGeometry relative="1" as="geometry"/>
                </mxCell>
                <mxCell id="32" value="Yorkshire Dales" style="rounded=0;whiteSpace=wrap;html=1;fontSize=24;fillColor=#5E0202;" vertex="1" parent="1">
                    <mxGeometry x="1440" y="170" width="120" height="60" as="geometry"/>
                </mxCell>
                <mxCell id="37" style="edgeStyle=none;html=1;exitX=0.5;exitY=1;exitDx=0;exitDy=0;entryX=0.25;entryY=0;entryDx=0;entryDy=0;fontSize=24;" edge="1" parent="1" source="33" target="17">
                    <mxGeometry relative="1" as="geometry"/>
                </mxCell>
                <mxCell id="33" value="Peak District" style="rounded=0;whiteSpace=wrap;html=1;fontSize=24;fillColor=#5E0202;" vertex="1" parent="1">
                    <mxGeometry x="1300" y="170" width="120" height="60" as="geometry"/>
                </mxCell>
            </root>
        </mxGraphModel>
    </diagram>
</mxfile>